<svg xmlns="http://www.w3.org/2000/svg" viewBox="0 0 1440 1020.824" enable-background="new 0 0 1440 1020.824"><path fill="#6D6D6D" d="M1375.668 545.798c-29.307-21.796-66.628-37.273-107.469-44.953 1.818-12.843 3.308-25.757 4.419-38.735l.03-.35c1.592-18.601-13.077-34.579-31.746-34.579h-1208.649c-18.669 0-33.338 15.979-31.746 34.58l.03.349c10.456 122.127 52.45 238.934 121.441 337.79 66.229 94.901 154.789 169.92 256.513 217.393 5.06 2.361 10.594 3.531 16.178 3.531h483.793c5.588 0 11.126-1.171 16.19-3.534 95.132-44.399 178.751-112.889 243.362-199.2 22.626 5.094 46.223 7.669 70.428 7.669 59.452 0 115.774-15.767 158.594-44.396 46.803-31.293 72.576-74.202 72.576-120.825-.001-43.326-22.709-84.074-63.944-114.74zm-167.227 215.595c-10.578 0-20.986-.605-31.172-1.81 36.233-60.508 62.727-126.01 79.072-195.526 68.523 12.841 118.903 52.336 118.903 96.482 0 54.67-76.385 100.854-166.803 100.854zM990.717 389.945l-.983-.964c-.654-.639-1.651-1.557-2.993-2.736-2.704-2.331-6.904-5.574-12.828-9.008-5.919-3.438-13.598-6.978-22.951-10.188-4.681-1.597-9.779-3.111-15.279-4.501-5.493-1.412-11.383-2.716-17.653-3.882-12.546-2.304-26.571-4.184-41.934-5.527-15.367-1.307-32.046-2.247-49.917-2.685-35.742-.927-76.186-.219-120.408 1.215-44.231 1.443-92.233 3.597-143.328 4.899-25.552.634-51.881 1.015-78.958.693-27.085-.357-54.897-1.357-83.579-4.285-14.341-1.514-28.904-3.523-43.764-6.56-7.432-1.524-14.931-3.354-22.525-5.592-7.593-2.261-15.278-4.921-23.051-8.38-7.761-3.453-15.648-7.687-23.351-13.452-3.845-2.877-7.635-6.168-11.221-9.94-3.575-3.788-6.953-8.061-9.832-12.844-2.893-4.759-5.278-10-6.96-15.423-1.708-5.422-2.692-10.994-3.085-16.425-.083-1.352-.158-2.708-.174-4.042-.005-.52-.017-.257-.015-1.419l.005-.68.005-.681c-.001-.179.004-.468.021-.927l.103-2.39.16-2.083c.132-1.395.28-2.794.503-4.213.827-5.651 2.441-11.482 4.89-17.021 2.432-5.544 5.693-10.758 9.431-15.269 3.733-4.525 7.894-8.407 12.15-11.651 8.549-6.533 17.366-10.75 25.871-14.005 8.53-3.216 16.875-5.446 25.065-7.174 8.195-1.722 16.244-2.951 24.209-3.854 15.925-1.794 31.502-2.454 46.919-2.624 15.414-.159 30.654.283 45.789.963 15.133.681 30.156 1.684 45.091 2.869 14.933 1.187 29.785 2.484 44.55 3.936 14.766 1.443 29.452 2.957 44.057 4.476 14.565 1.543 29.087 3.082 43.552 4.615 14.432 1.486 28.766 2.998 42.998 4.348 14.232 1.346 28.357 2.591 42.347 3.659 27.959 2.06 55.487 3.489 81.795 2.788 13.124-.348 25.953-1.257 37.921-3.167 5.973-.947 11.721-2.145 17.023-3.67 5.293-1.52 10.142-3.383 14.106-5.512 3.972-2.137 6.961-4.46 8.896-6.747 1.948-2.302 3.118-4.58 3.812-7.798.18-.792.292-1.656.387-2.555.047-.449.08-.914.1-1.392.007.053.015-.619.022.028l.002-.609.005-1.217.006-1.216-.008-.45-.013-.356-.029-1.441c-.087-1.123-.134-2.266-.284-3.33-.484-4.349-1.57-8.054-3.169-11.289-1.593-3.242-3.803-6.069-6.79-8.737-1.493-1.324-3.165-2.598-5.025-3.787-1.869-1.183-3.901-2.294-6.054-3.331-8.689-4.118-19.223-6.913-30.021-8.809-10.831-1.907-22.026-3.069-33.161-3.87-11.149-.782-22.275-1.281-33.257-1.623-21.976-.715-43.363-1.097-63.838-2.001-20.474-.968-40.068-2.541-58.471-5.331-18.374-2.918-35.615-7.045-50.9-13.27-15.241-6.228-28.503-14.604-38.142-24.598-4.865-4.931-8.781-10.225-11.962-15.424-3.142-5.238-5.453-10.454-7.198-15.387-3.465-9.898-4.737-18.636-5.283-25.65-.545-7.029-.392-12.395-.25-15.995.067-1.8.193-3.162.245-4.074l.092-1.373.538 5.417c.406 3.558 1.114 8.836 2.605 15.534.773 3.341 1.735 7.04 3.107 10.981 1.334 3.949 3.018 8.162 5.232 12.471 2.207 4.311 4.969 8.695 8.313 12.997 3.408 4.253 7.397 8.432 12.157 12.173 2.352 1.898 4.901 3.677 7.598 5.364 2.682 1.707 5.536 3.299 8.55 4.76 6.003 2.962 12.641 5.404 19.743 7.422 14.229 4.024 30.364 6.26 47.832 7.165 17.477.993 36.296.713 56.277-.146 19.99-.75 41.138-2.217 63.555-3.233 11.214-.473 22.752-.893 34.683-.86 11.935.047 24.255.368 37.127 1.809 6.432.705 13.014 1.706 19.753 3.15 6.741 1.463 13.652 3.403 20.679 6.23 3.512 1.426 7.047 3.065 10.568 4.998 3.518 1.944 7.015 4.212 10.397 6.829 3.378 2.619 6.642 5.602 9.627 8.953 2.99 3.346 5.667 7.072 7.955 11.003 4.598 7.878 7.5 16.553 8.945 24.937.4 2.113.643 4.185.9 6.276.108 1.108.195 2.267.281 3.401l.11 1.619.055 1.215.054 1.215.027.608.012 1.246c.01 1.146-.008 2.305-.061 3.479-.106 2.346-.303 4.73-.679 7.154-.712 4.835-2.044 9.793-4.014 14.566-1.988 4.763-4.598 9.332-7.678 13.383-3.064 4.079-6.546 7.644-10.171 10.751-3.632 3.094-7.418 5.713-11.225 7.985-7.628 4.519-15.312 7.689-22.881 10.217-7.577 2.509-15.072 4.359-22.507 5.834-14.871 2.891-29.516 4.372-44.101 5.269-29.152 1.656-58.089.957-87.113-.53-14.509-.736-29.028-1.717-43.563-2.843-14.535-1.123-29.091-2.33-43.655-3.671-28.975-2.702-58.18-5.426-87.5-8.16-14.586-1.298-29.159-2.601-43.704-3.697-14.544-1.091-29.056-2.052-43.485-2.765-14.427-.705-28.782-1.094-42.936-1.063-14.143.038-28.122.554-41.508 1.96-6.685.709-13.223 1.604-19.438 2.835-6.215 1.216-12.112 2.765-17.337 4.655-5.211 1.88-9.696 4.17-12.827 6.47-1.588 1.144-2.799 2.284-3.746 3.358-.951 1.08-1.608 2.098-2.142 3.206-.531 1.107-.946 2.333-1.21 3.867-.078.373-.121.783-.176 1.193l-.068.631-.032.329c-.01-.005-.019.159-.023.434l-.017.68-.017.68.006-.058c-.011.481.014.936.022 1.395.199 3.624.937 6.399 2.542 9.27 1.579 2.855 4.23 5.892 7.974 8.848 3.725 2.948 8.413 5.756 13.619 8.254 10.454 5.022 22.75 8.812 35.367 11.844 12.66 3.044 25.776 5.336 38.973 7.179 13.2 1.871 26.503 3.306 39.77 4.467 13.27 1.163 26.509 2.107 39.659 2.853 26.303 1.521 52.235 2.429 77.549 3.207 50.64 1.507 98.823 2.417 143.379 4.352 44.557 1.863 85.524 4.604 121.736 8.987 18.101 2.207 35.021 4.721 50.562 7.79 15.544 3.021 29.727 6.465 42.324 10.373 6.3 1.942 12.206 3.983 17.695 6.092 5.48 2.135 10.536 4.354 15.15 6.6 9.237 4.483 16.64 9.206 22.212 13.536 5.601 4.307 9.333 8.237 11.711 10.945 1.178 1.369 2.026 2.447 2.577 3.173l.823 1.097z"/><path fill="#fff" d="M862.873 593.415v-171.756h-16.551v171.756h-54.223l-36.81 36.81v224.365h198.618v-224.365l-36.811-36.81z"/></svg>