<svg xmlns="http://www.w3.org/2000/svg" viewBox="0 0 841.9 595.3" enable-background="new 0 0 841.9 595.3"><path fill="#fff" d="M585.5 75.9h-585.5l105.6 239.2h404.4l75.5-239.2zm-464.5 78.8h360.6l-26.4 82h-298l-36.2-82zm691.1-154.7l-25.2 78.8h-59.3l-116.9 371.1h-447.5l-34.9-78.8h425.1l117-371.1h141.7zm-286.3 542.1c0 29.2-23.6 53.2-53.2 53.2-29.2 0-53.2-23.6-53.2-53.2 0-29.2 23.6-53.2 53.2-53.2 29.7.4 53.2 24 53.2 53.2zm-175 0c0 29.2-23.6 53.2-53.2 53.2s-53.2-23.6-53.2-53.2c0-29.2 23.6-53.2 53.2-53.2 29.7 0 53.2 24 53.2 53.2z"/></svg>