<?xml version="1.0" encoding="utf-8"?>
<!-- Generator: Adobe Illustrator 17.1.0, SVG Export Plug-In . SVG Version: 6.00 Build 0)  -->
<!DOCTYPE svg PUBLIC "-//W3C//DTD SVG 1.1//EN" "http://www.w3.org/Graphics/SVG/1.1/DTD/svg11.dtd">
<svg version="1.1" id="Layer_1" xmlns="http://www.w3.org/2000/svg" xmlns:xlink="http://www.w3.org/1999/xlink" x="0px" y="0px"
	 viewBox="0 0 812.788 576" enable-background="new 0 0 812.788 576" xml:space="preserve">
<g>
	<path fill="#F15A29" d="M556.891,221.03c0,0-0.184-0.181-0.546-0.536c-0.363-0.355-0.918-0.866-1.664-1.521
		c-1.503-1.296-3.838-3.099-7.132-5.008c-3.291-1.911-7.559-3.879-12.759-5.664c-2.602-0.888-5.436-1.729-8.494-2.502
		c-3.054-0.785-6.328-1.51-9.813-2.158c-6.974-1.281-14.771-2.326-23.312-3.072c-8.543-0.727-17.815-1.249-27.75-1.493
		c-19.869-0.515-42.353-0.122-66.937,0.676c-24.589,0.802-51.274,2-79.679,2.723c-14.205,0.353-28.842,0.564-43.895,0.385
		c-15.057-0.198-30.519-0.754-46.463-2.382c-7.973-0.842-16.069-1.958-24.33-3.647c-4.132-0.847-8.301-1.864-12.522-3.108
		c-4.221-1.257-8.493-2.736-12.815-4.658c-4.315-1.919-8.699-4.273-12.981-7.478c-2.138-1.599-4.244-3.429-6.238-5.526
		c-1.987-2.106-3.865-4.482-5.466-7.14c-1.608-2.646-2.934-5.559-3.869-8.574c-0.95-3.014-1.496-6.112-1.715-9.131
		c-0.046-0.752-0.088-1.505-0.096-2.247c-0.003-0.289-0.01-0.143-0.008-0.789l0.003-0.378l0.003-0.378
		c-0.001-0.1,0.002-0.26,0.012-0.515l0.057-1.329l0.089-1.158c0.074-0.776,0.156-1.553,0.28-2.342
		c0.46-3.141,1.357-6.383,2.718-9.462c1.352-3.082,3.165-5.981,5.243-8.488c2.075-2.515,4.388-4.673,6.754-6.477
		c4.753-3.632,9.654-5.976,14.382-7.786c4.742-1.788,9.381-3.028,13.934-3.988c4.556-0.957,9.03-1.64,13.458-2.143
		c8.853-0.998,17.513-1.364,26.083-1.459c8.569-0.088,17.041,0.157,25.455,0.535c8.413,0.378,16.764,0.936,25.067,1.595
		c8.302,0.66,16.558,1.381,24.766,2.188c8.209,0.802,16.373,1.644,24.492,2.488c8.097,0.858,16.17,1.714,24.211,2.566
		c8.023,0.826,15.991,1.667,23.904,2.417c7.912,0.748,15.764,1.44,23.542,2.034c15.543,1.145,30.847,1.94,45.472,1.55
		c7.296-0.193,14.428-0.699,21.081-1.76c3.32-0.526,6.516-1.193,9.464-2.04c2.942-0.845,5.638-1.881,7.842-3.064
		c2.208-1.188,3.87-2.48,4.945-3.751c1.083-1.28,1.734-2.546,2.119-4.335c0.1-0.44,0.162-0.92,0.215-1.42
		c0.026-0.25,0.044-0.508,0.055-0.774c0.004,0.029,0.008-0.344,0.012,0.016l0.001-0.338l0.003-0.676l0.003-0.676
		c0.002-0.132-0.002-0.184-0.005-0.25l-0.007-0.198l-0.016-0.801c-0.048-0.624-0.075-1.26-0.158-1.851
		c-0.269-2.417-0.873-4.478-1.762-6.276c-0.886-1.802-2.114-3.374-3.775-4.857c-0.83-0.736-1.759-1.444-2.793-2.105
		c-1.039-0.658-2.168-1.275-3.366-1.852c-4.831-2.29-10.687-3.843-16.69-4.897c-6.021-1.06-12.245-1.706-18.435-2.151
		c-6.198-0.435-12.383-0.712-18.488-0.902c-12.217-0.398-24.106-0.61-35.489-1.112c-11.382-0.538-22.275-1.413-32.505-2.964
		c-10.215-1.622-19.799-3.916-28.296-7.377c-8.473-3.462-15.845-8.119-21.204-13.675c-2.705-2.741-4.881-5.684-6.65-8.574
		c-1.747-2.912-3.031-5.811-4.002-8.554c-1.927-5.503-2.634-10.36-2.937-14.26c-0.303-3.907-0.218-6.891-0.139-8.892
		c0.037-1.001,0.107-1.758,0.136-2.265c0.034-0.506,0.052-0.764,0.052-0.764s0.102,1.025,0.299,3.012
		c0.226,1.978,0.619,4.912,1.448,8.635c0.43,1.857,0.964,3.914,1.727,6.105c0.741,2.195,1.678,4.537,2.909,6.933
		c1.227,2.396,2.763,4.834,4.621,7.225c1.894,2.364,4.112,4.688,6.759,6.767c1.307,1.055,2.724,2.044,4.224,2.982
		c1.491,0.949,3.077,1.834,4.753,2.646c3.337,1.647,7.027,3.004,10.976,4.126c7.91,2.237,16.88,3.48,26.591,3.983
		c9.716,0.552,20.178,0.396,31.285-0.081c11.113-0.417,22.87-1.232,35.332-1.797c6.234-0.263,12.648-0.496,19.281-0.478
		c6.635,0.026,13.484,0.205,20.64,1.006c3.576,0.392,7.235,0.949,10.981,1.751c3.748,0.813,7.59,1.892,11.496,3.463
		c1.952,0.792,3.918,1.704,5.875,2.779c1.956,1.081,3.9,2.342,5.78,3.796c1.878,1.456,3.693,3.114,5.352,4.977
		c1.662,1.86,3.15,3.932,4.422,6.117c2.556,4.379,4.169,9.202,4.973,13.863c0.222,1.174,0.357,2.327,0.5,3.489
		c0.06,0.616,0.108,1.26,0.156,1.891l0.061,0.9l0.03,0.675l0.03,0.676l0.015,0.338l0.007,0.693c0.006,0.637-0.005,1.282-0.034,1.934
		c-0.059,1.304-0.169,2.63-0.377,3.977c-0.396,2.688-1.136,5.444-2.231,8.098c-1.105,2.648-2.556,5.188-4.268,7.44
		c-1.703,2.267-3.639,4.25-5.654,5.977c-2.019,1.72-4.124,3.176-6.24,4.439c-4.24,2.512-8.512,4.274-12.72,5.68
		c-4.212,1.395-8.379,2.423-12.512,3.243c-8.267,1.607-16.408,2.43-24.517,2.929c-16.206,0.921-32.293,0.532-48.428-0.295
		c-8.066-0.409-16.137-0.955-24.217-1.58c-8.08-0.624-16.172-1.295-24.269-2.041c-16.108-1.502-32.343-3.016-48.643-4.536
		c-8.109-0.721-16.21-1.446-24.296-2.055c-8.085-0.607-16.153-1.141-24.174-1.537c-8.021-0.392-16.001-0.608-23.869-0.591
		c-7.862,0.021-15.633,0.308-23.075,1.09c-3.716,0.394-7.351,0.892-10.806,1.576c-3.455,0.676-6.733,1.537-9.638,2.588
		c-2.897,1.045-5.39,2.318-7.131,3.597c-0.883,0.636-1.556,1.27-2.083,1.867c-0.529,0.6-0.894,1.166-1.191,1.782
		c-0.295,0.616-0.526,1.297-0.673,2.15c-0.043,0.207-0.067,0.435-0.098,0.663l-0.038,0.351c-0.002,0.061-0.008,0.122-0.018,0.183
		c-0.006-0.003-0.01,0.088-0.013,0.241l-0.01,0.378l-0.01,0.378c0.004-0.394,0.002,0.004,0.003-0.032
		c-0.006,0.267,0.008,0.521,0.012,0.776c0.111,2.015,0.521,3.557,1.413,5.154c0.878,1.587,2.352,3.276,4.433,4.919
		c2.071,1.639,4.677,3.2,7.571,4.588c5.811,2.792,12.647,4.899,19.661,6.584c7.038,1.692,14.33,2.966,21.666,3.991
		c7.338,1.04,14.733,1.838,22.109,2.483c7.377,0.646,14.737,1.171,22.047,1.586c14.623,0.846,29.038,1.35,43.111,1.783
		c28.152,0.838,54.938,1.344,79.707,2.419c24.77,1.036,47.544,2.559,67.676,4.996c10.063,1.227,19.469,2.625,28.108,4.33
		c8.641,1.679,16.526,3.594,23.529,5.767c3.502,1.079,6.786,2.214,9.837,3.387c3.047,1.187,5.857,2.42,8.422,3.669
		c5.135,2.492,9.25,5.118,12.348,7.525c3.113,2.395,5.188,4.579,6.511,6.084c0.655,0.761,1.126,1.36,1.433,1.764
		C556.737,220.824,556.891,221.03,556.891,221.03z"/>
	<path fill="#F15A29" d="M770.893,307.672c-16.292-12.117-37.04-20.721-59.744-24.99c1.011-7.14,1.839-14.319,2.457-21.533
		l0.017-0.195c0.885-10.341-7.27-19.223-17.648-19.223H485.82v92.413h30.144l20.464,20.464v124.729H426.012V354.607l20.464-20.464
		h30.144V241.73H24.061c-10.379,0-18.534,8.883-17.648,19.224l0.017,0.194c5.813,67.893,29.158,132.828,67.511,187.785
		c36.818,52.757,86.05,94.462,142.601,120.853c2.813,1.313,5.89,1.963,8.994,1.963h268.95c3.106,0,6.185-0.651,9-1.964
		c52.886-24.682,99.372-62.758,135.29-110.739c12.578,2.832,25.696,4.263,39.152,4.263c33.05,0,64.361-8.765,88.166-24.681
		c26.018-17.396,40.347-41.25,40.347-67.169C806.441,347.372,793.817,324.72,770.893,307.672z M677.929,427.526
		c-5.881,0-11.666-0.336-17.329-1.006c20.143-33.637,34.871-70.051,43.958-108.697c38.093,7.139,66.101,29.095,66.101,53.636
		C770.658,401.851,728.194,427.526,677.929,427.526z"/>
</g>
</svg>
