<?xml version="1.0" encoding="utf-8"?>
<!-- Generator: Adobe Illustrator 17.1.0, SVG Export Plug-In . SVG Version: 6.00 Build 0)  -->
<!DOCTYPE svg PUBLIC "-//W3C//DTD SVG 1.1//EN" "http://www.w3.org/Graphics/SVG/1.1/DTD/svg11.dtd">
<svg version="1.1" id="Layer_1" xmlns="http://www.w3.org/2000/svg" xmlns:xlink="http://www.w3.org/1999/xlink" x="0px" y="0px"
	 viewBox="0 0 1440 1020.824" enable-background="new 0 0 1440 1020.824" xml:space="preserve">
<path fill="#6D6D6D" d="M1375.668,545.798c-29.307-21.796-66.628-37.273-107.469-44.953c1.818-12.843,3.308-25.757,4.419-38.735
	l0.03-0.35c1.592-18.601-13.077-34.579-31.746-34.579H32.253c-18.669,0-33.338,15.979-31.746,34.58l0.03,0.349
	c10.456,122.127,52.45,238.934,121.441,337.79c66.229,94.901,154.789,169.92,256.513,217.393c5.06,2.361,10.594,3.531,16.178,3.531
	h483.793c5.588,0,11.126-1.171,16.19-3.534c95.132-44.399,178.751-112.889,243.362-199.2c22.626,5.094,46.223,7.669,70.428,7.669
	c59.452,0,115.774-15.767,158.594-44.396c46.803-31.293,72.576-74.202,72.576-120.825
	C1439.611,617.212,1416.903,576.464,1375.668,545.798z M1208.441,761.393c-10.578,0-20.986-0.605-31.172-1.81
	c36.233-60.508,62.727-126.01,79.072-195.526c68.523,12.841,118.903,52.336,118.903,96.482
	C1375.244,715.209,1298.859,761.393,1208.441,761.393z"/>
<path fill="#6D6D6D" d="M990.717,389.945c0,0-0.331-0.325-0.983-0.964c-0.654-0.639-1.651-1.557-2.993-2.736
	c-2.704-2.331-6.904-5.574-12.828-9.008c-5.919-3.438-13.598-6.978-22.951-10.188c-4.681-1.597-9.779-3.111-15.279-4.501
	c-5.493-1.412-11.383-2.716-17.653-3.882c-12.546-2.304-26.571-4.184-41.934-5.527c-15.367-1.307-32.046-2.247-49.917-2.685
	c-35.742-0.927-76.186-0.219-120.408,1.215c-44.231,1.443-92.233,3.597-143.328,4.899c-25.552,0.634-51.881,1.015-78.958,0.693
	c-27.085-0.357-54.897-1.357-83.579-4.285c-14.341-1.514-28.904-3.523-43.764-6.56c-7.432-1.524-14.931-3.354-22.525-5.592
	c-7.593-2.261-15.278-4.921-23.051-8.38c-7.761-3.453-15.648-7.687-23.351-13.452c-3.845-2.877-7.635-6.168-11.221-9.94
	c-3.575-3.788-6.953-8.061-9.832-12.844c-2.893-4.759-5.278-10-6.96-15.423c-1.708-5.422-2.692-10.994-3.085-16.425
	c-0.083-1.352-0.158-2.708-0.174-4.042c-0.005-0.52-0.017-0.257-0.015-1.419l0.005-0.68l0.005-0.681
	c-0.001-0.179,0.004-0.468,0.021-0.927l0.103-2.39l0.16-2.083c0.132-1.395,0.28-2.794,0.503-4.213
	c0.827-5.651,2.441-11.482,4.89-17.021c2.432-5.544,5.693-10.758,9.431-15.269c3.733-4.525,7.894-8.407,12.15-11.651
	c8.549-6.533,17.366-10.75,25.871-14.005c8.53-3.216,16.875-5.446,25.065-7.174c8.195-1.722,16.244-2.951,24.209-3.854
	c15.925-1.794,31.502-2.454,46.919-2.624c15.414-0.159,30.654,0.283,45.789,0.963c15.133,0.681,30.156,1.684,45.091,2.869
	c14.933,1.187,29.785,2.484,44.55,3.936c14.766,1.443,29.452,2.957,44.057,4.476c14.565,1.543,29.087,3.082,43.552,4.615
	c14.432,1.486,28.766,2.998,42.998,4.348c14.232,1.346,28.357,2.591,42.347,3.659c27.959,2.06,55.487,3.489,81.795,2.788
	c13.124-0.348,25.953-1.257,37.921-3.167c5.973-0.947,11.721-2.145,17.023-3.67c5.293-1.52,10.142-3.383,14.106-5.512
	c3.972-2.137,6.961-4.46,8.896-6.747c1.948-2.302,3.118-4.58,3.812-7.798c0.18-0.792,0.292-1.656,0.387-2.555
	c0.047-0.449,0.08-0.914,0.1-1.392c0.007,0.053,0.015-0.619,0.022,0.028l0.002-0.609l0.005-1.217l0.006-1.216
	c0.004-0.238-0.003-0.332-0.008-0.45l-0.013-0.356l-0.029-1.441c-0.087-1.123-0.134-2.266-0.284-3.33
	c-0.484-4.349-1.57-8.054-3.169-11.289c-1.593-3.242-3.803-6.069-6.79-8.737c-1.493-1.324-3.165-2.598-5.025-3.787
	c-1.869-1.183-3.901-2.294-6.054-3.331c-8.689-4.118-19.223-6.913-30.021-8.809c-10.831-1.907-22.026-3.069-33.161-3.87
	c-11.149-0.782-22.275-1.281-33.257-1.623c-21.976-0.715-43.363-1.097-63.838-2.001c-20.474-0.968-40.068-2.541-58.471-5.331
	c-18.374-2.918-35.615-7.045-50.9-13.27c-15.241-6.228-28.503-14.604-38.142-24.598c-4.865-4.931-8.781-10.225-11.962-15.424
	c-3.142-5.238-5.453-10.454-7.198-15.387c-3.465-9.898-4.737-18.636-5.283-25.65c-0.545-7.029-0.392-12.395-0.25-15.995
	c0.067-1.8,0.193-3.162,0.245-4.074C524.17,0.463,524.201,0,524.201,0s0.183,1.844,0.538,5.417
	c0.406,3.558,1.114,8.836,2.605,15.534c0.773,3.341,1.735,7.04,3.107,10.981c1.334,3.949,3.018,8.162,5.232,12.471
	c2.207,4.311,4.969,8.695,8.313,12.997c3.408,4.253,7.397,8.432,12.157,12.173c2.352,1.898,4.901,3.677,7.598,5.364
	c2.682,1.707,5.536,3.299,8.55,4.76c6.003,2.962,12.641,5.404,19.743,7.422c14.229,4.024,30.364,6.26,47.832,7.165
	c17.477,0.993,36.296,0.713,56.277-0.146c19.99-0.75,41.138-2.217,63.555-3.233c11.214-0.473,22.752-0.893,34.683-0.86
	c11.935,0.047,24.255,0.368,37.127,1.809c6.432,0.705,13.014,1.706,19.753,3.15c6.741,1.463,13.652,3.403,20.679,6.23
	c3.512,1.426,7.047,3.065,10.568,4.998c3.518,1.944,7.015,4.212,10.397,6.829c3.378,2.619,6.642,5.602,9.627,8.953
	c2.99,3.346,5.667,7.072,7.955,11.003c4.598,7.878,7.5,16.553,8.945,24.937c0.4,2.113,0.643,4.185,0.9,6.276
	c0.108,1.108,0.195,2.267,0.281,3.401l0.11,1.619l0.055,1.215l0.054,1.215l0.027,0.608l0.012,1.246
	c0.01,1.146-0.008,2.305-0.061,3.479c-0.106,2.346-0.303,4.73-0.679,7.154c-0.712,4.835-2.044,9.793-4.014,14.566
	c-1.988,4.763-4.598,9.332-7.678,13.383c-3.064,4.079-6.546,7.644-10.171,10.751c-3.632,3.094-7.418,5.713-11.225,7.985
	c-7.628,4.519-15.312,7.689-22.881,10.217c-7.577,2.509-15.072,4.359-22.507,5.834c-14.871,2.891-29.516,4.372-44.101,5.269
	c-29.152,1.656-58.089,0.957-87.113-0.53c-14.509-0.736-29.028-1.717-43.563-2.843c-14.535-1.123-29.091-2.33-43.655-3.671
	c-28.975-2.702-58.18-5.426-87.5-8.16c-14.586-1.298-29.159-2.601-43.704-3.697c-14.544-1.091-29.056-2.052-43.485-2.765
	c-14.427-0.705-28.782-1.094-42.936-1.063c-14.143,0.038-28.122,0.554-41.508,1.96c-6.685,0.709-13.223,1.604-19.438,2.835
	c-6.215,1.216-12.112,2.765-17.337,4.655c-5.211,1.88-9.696,4.17-12.827,6.47c-1.588,1.144-2.799,2.284-3.746,3.358
	c-0.951,1.08-1.608,2.098-2.142,3.206c-0.531,1.107-0.946,2.333-1.21,3.867c-0.078,0.373-0.121,0.783-0.176,1.193l-0.068,0.631
	c-0.004,0.11-0.015,0.22-0.032,0.329c-0.01-0.005-0.019,0.159-0.023,0.434l-0.017,0.68l-0.017,0.68
	c0.008-0.709,0.004,0.008,0.006-0.058c-0.011,0.481,0.014,0.936,0.022,1.395c0.199,3.624,0.937,6.399,2.542,9.27
	c1.579,2.855,4.23,5.892,7.974,8.848c3.725,2.948,8.413,5.756,13.619,8.254c10.454,5.022,22.75,8.812,35.367,11.844
	c12.66,3.044,25.776,5.336,38.973,7.179c13.2,1.871,26.503,3.306,39.77,4.467c13.27,1.163,26.509,2.107,39.659,2.853
	c26.303,1.521,52.235,2.429,77.549,3.207c50.64,1.507,98.823,2.417,143.379,4.352c44.557,1.863,85.524,4.604,121.736,8.987
	c18.101,2.207,35.021,4.721,50.562,7.79c15.544,3.021,29.727,6.465,42.324,10.373c6.3,1.942,12.206,3.983,17.695,6.092
	c5.48,2.135,10.536,4.354,15.15,6.6c9.237,4.483,16.64,9.206,22.212,13.536c5.601,4.307,9.333,8.237,11.711,10.945
	c1.178,1.369,2.026,2.447,2.577,3.173C990.439,389.574,990.717,389.945,990.717,389.945z"/>
<g>
	<polygon fill="#FFFFFF" points="862.873,593.415 862.873,421.659 846.322,421.659 846.322,593.415 792.099,593.415 
		755.289,630.225 755.289,854.59 953.907,854.59 953.907,630.225 917.096,593.415 	"/>
</g>
</svg>
