<svg xmlns="http://www.w3.org/2000/svg" viewBox="0 0 812.788 576" enable-background="new 0 0 812.788 576"><g fill="#19783C"><path d="M556.891 221.03l-.546-.536c-.363-.355-.918-.866-1.664-1.521-1.503-1.296-3.838-3.099-7.132-5.008-3.291-1.911-7.559-3.879-12.759-5.664-2.602-.888-5.436-1.729-8.494-2.502-3.054-.785-6.328-1.51-9.813-2.158-6.974-1.281-14.771-2.326-23.312-3.072-8.543-.727-17.815-1.249-27.75-1.493-19.869-.515-42.353-.122-66.937.676-24.589.802-51.274 2-79.679 2.723-14.205.353-28.842.564-43.895.385-15.057-.198-30.519-.754-46.463-2.382-7.973-.842-16.069-1.958-24.33-3.647-4.132-.847-8.301-1.864-12.522-3.108-4.221-1.257-8.493-2.736-12.815-4.658-4.315-1.919-8.699-4.273-12.981-7.478-2.138-1.599-4.244-3.429-6.238-5.526-1.987-2.106-3.865-4.482-5.466-7.14-1.608-2.646-2.934-5.559-3.869-8.574-.95-3.014-1.496-6.112-1.715-9.131-.046-.752-.088-1.505-.096-2.247l-.008-.789.003-.378.003-.378.012-.515.057-1.329.089-1.158c.074-.776.156-1.553.28-2.342.46-3.141 1.357-6.383 2.718-9.462 1.352-3.082 3.165-5.981 5.243-8.488 2.075-2.515 4.388-4.673 6.754-6.477 4.753-3.632 9.654-5.976 14.382-7.786 4.742-1.788 9.381-3.028 13.934-3.988 4.556-.957 9.03-1.64 13.458-2.143 8.853-.998 17.513-1.364 26.083-1.459 8.569-.088 17.041.157 25.455.535 8.413.378 16.764.936 25.067 1.595 8.302.66 16.558 1.381 24.766 2.188 8.209.802 16.373 1.644 24.492 2.488l24.211 2.566c8.023.826 15.991 1.667 23.904 2.417 7.912.748 15.764 1.44 23.542 2.034 15.543 1.145 30.847 1.94 45.472 1.55 7.296-.193 14.428-.699 21.081-1.76 3.32-.526 6.516-1.193 9.464-2.04 2.942-.845 5.638-1.881 7.842-3.064 2.208-1.188 3.87-2.48 4.945-3.751 1.083-1.28 1.734-2.546 2.119-4.335.1-.44.162-.92.215-1.42.026-.25.044-.508.055-.774l.012.016.001-.338.003-.676.003-.676-.005-.25-.007-.198-.016-.801c-.048-.624-.075-1.26-.158-1.851-.269-2.417-.873-4.478-1.762-6.276-.886-1.802-2.114-3.374-3.775-4.857-.83-.736-1.759-1.444-2.793-2.105-1.039-.658-2.169-1.275-3.366-1.852-4.831-2.29-10.687-3.843-16.69-4.897-6.021-1.06-12.245-1.706-18.435-2.151-6.198-.435-12.383-.712-18.488-.902-12.217-.398-24.106-.61-35.489-1.112-11.382-.538-22.275-1.413-32.505-2.964-10.215-1.622-19.799-3.916-28.296-7.377-8.473-3.462-15.845-8.119-21.204-13.675-2.705-2.741-4.881-5.684-6.65-8.574-1.747-2.912-3.031-5.811-4.002-8.554-1.927-5.503-2.634-10.36-2.937-14.26-.303-3.907-.218-6.891-.139-8.892.037-1.001.107-1.758.136-2.265l.052-.764.299 3.012c.226 1.978.619 4.912 1.448 8.635.43 1.857.964 3.914 1.727 6.105.741 2.195 1.678 4.537 2.909 6.933 1.227 2.396 2.763 4.834 4.621 7.225 1.894 2.364 4.112 4.688 6.759 6.767 1.307 1.055 2.724 2.044 4.224 2.982 1.491.949 3.077 1.834 4.753 2.646 3.337 1.647 7.027 3.004 10.976 4.126 7.91 2.237 16.88 3.48 26.591 3.983 9.716.552 20.178.396 31.285-.081 11.113-.417 22.87-1.232 35.332-1.797 6.234-.263 12.648-.496 19.281-.478 6.635.026 13.484.205 20.64 1.006 3.576.392 7.235.949 10.981 1.751 3.748.813 7.59 1.892 11.496 3.463 1.952.792 3.918 1.704 5.875 2.779 1.956 1.081 3.9 2.342 5.78 3.796 1.878 1.456 3.693 3.114 5.352 4.977 1.662 1.86 3.15 3.932 4.422 6.117 2.556 4.379 4.169 9.202 4.973 13.863.222 1.174.357 2.327.5 3.489.06.616.108 1.26.156 1.891l.061.9.03.675.03.676.015.338.007.693c.006.637-.005 1.282-.034 1.934-.059 1.304-.169 2.63-.377 3.977-.396 2.688-1.136 5.444-2.231 8.098-1.105 2.648-2.556 5.188-4.268 7.44-1.703 2.267-3.639 4.25-5.654 5.977-2.019 1.72-4.124 3.176-6.24 4.439-4.24 2.512-8.512 4.274-12.72 5.68-4.212 1.395-8.379 2.423-12.512 3.243-8.267 1.607-16.408 2.43-24.517 2.929-16.206.921-32.293.532-48.428-.295-8.066-.409-16.137-.955-24.217-1.58-8.08-.624-16.172-1.295-24.269-2.041l-48.643-4.536c-8.109-.721-16.21-1.446-24.296-2.055-8.085-.607-16.153-1.141-24.174-1.537-8.021-.392-16.001-.608-23.869-.591-7.862.021-15.633.308-23.075 1.09-3.716.394-7.351.892-10.806 1.576-3.455.676-6.733 1.537-9.638 2.588-2.897 1.045-5.39 2.318-7.131 3.597-.883.636-1.556 1.27-2.083 1.867-.529.6-.894 1.166-1.191 1.782-.295.616-.526 1.297-.673 2.15-.043.207-.067.435-.098.663l-.038.351-.018.183-.013.241-.01.378-.01.378.003-.032c-.006.267.008.521.012.776.111 2.015.521 3.557 1.413 5.154.878 1.587 2.352 3.276 4.433 4.919 2.071 1.639 4.677 3.2 7.571 4.588 5.811 2.792 12.647 4.899 19.661 6.584 7.038 1.692 14.33 2.966 21.666 3.991 7.338 1.04 14.733 1.838 22.109 2.483 7.377.646 14.737 1.171 22.047 1.586 14.623.846 29.038 1.35 43.111 1.783 28.152.838 54.938 1.344 79.707 2.419 24.77 1.036 47.544 2.559 67.676 4.996 10.063 1.227 19.469 2.625 28.108 4.33 8.641 1.679 16.526 3.594 23.529 5.767 3.503 1.079 6.786 2.214 9.837 3.387 3.047 1.187 5.857 2.42 8.422 3.669 5.135 2.492 9.25 5.118 12.348 7.525 3.113 2.395 5.188 4.579 6.511 6.084.655.761 1.126 1.36 1.433 1.764l.461.604zM770.893 307.672c-16.292-12.117-37.04-20.721-59.744-24.99 1.011-7.14 1.839-14.319 2.457-21.533l.017-.195c.885-10.341-7.27-19.223-17.648-19.223h-210.155v92.413h30.144l20.464 20.464v124.729h-110.416v-124.73l20.464-20.464h30.144v-92.413h-452.559c-10.379 0-18.534 8.883-17.648 19.224l.017.194c5.813 67.893 29.158 132.828 67.511 187.785 36.818 52.757 86.05 94.462 142.601 120.853 2.813 1.313 5.89 1.963 8.994 1.963h268.95c3.106 0 6.185-.651 9-1.964 52.886-24.682 99.372-62.758 135.29-110.739 12.578 2.832 25.696 4.263 39.152 4.263 33.05 0 64.361-8.765 88.166-24.681 26.018-17.396 40.347-41.25 40.347-67.169 0-24.087-12.624-46.739-35.548-63.787zm-92.964 119.854c-5.881 0-11.666-.336-17.329-1.006 20.143-33.637 34.871-70.051 43.958-108.697 38.093 7.139 66.101 29.095 66.101 53.636-.001 30.392-42.465 56.067-92.73 56.067z"/></g></svg>