<?xml version="1.0" encoding="utf-8"?>
<!-- Generator: Adobe Illustrator 17.1.0, SVG Export Plug-In . SVG Version: 6.00 Build 0)  -->
<!DOCTYPE svg PUBLIC "-//W3C//DTD SVG 1.1//EN" "http://www.w3.org/Graphics/SVG/1.1/DTD/svg11.dtd">
<svg version="1.1" id="Layer_1" xmlns="http://www.w3.org/2000/svg" xmlns:xlink="http://www.w3.org/1999/xlink" x="0px" y="0px"
	 viewBox="0 252.8 841.9 89.6" enable-background="new 0 252.8 841.9 89.6" xml:space="preserve">
<g>
	<path fill="#FFFFFF" d="M89.1,333.9c-18.9,6.3-30.6,8.6-39.4,8.6c-29,0-48.5-17.9-48.5-44.8c0-26.9,18.4-44.8,46-44.8
		c15.4,0,27,2.3,37.4,4.8L80.3,282c-14.1-2.1-20.7-2.8-29.7-2.8c-10.9,0-18.2,7.3-18.2,18.4s7.3,18.4,18.2,18.4
		c6.3,0,11.9-0.9,16.7-2v-4.7H45v-20.7h44.1V333.9z"/>
	<path fill="#FFFFFF" d="M135.1,320.4h-5.8v20.2H99.8v-85.8c14.4-0.5,25.5-0.9,38.4-0.9c24.9,0,38.8,11.1,38.8,32.3
		c0,11.5-3.9,20.5-11.4,26.3l17.4,28.2h-34.1L138,320.4H135.1z M135.5,297.1c7.8,0,11.4-3.9,11.4-10c0-6.3-3.5-9.2-11.4-9.2h-6.2
		v19.2H135.5z"/>
	<path fill="#FFFFFF" d="M254.1,286.2v22.7h-32.7v7.7h38.9v24h-68.4v-85.8h68.4v24h-38.9v7.4H254.1z"/>
	<path fill="#FFFFFF" d="M337,286.2v22.7h-32.7v7.7h38.9v24h-68.4v-85.8h68.4v24h-38.9v7.4H337z"/>
	<path fill="#FFFFFF" d="M443.3,340.6h-25.8l-30.3-36.7v36.7h-29.5v-85.8h27.1l28.9,36.6v-36.6h29.5V340.6z"/>
	<path fill="#FFFFFF" d="M543.3,340.6h-29.5V280h-25.6v-25.2h80.8V280h-25.6V340.6z"/>
	<path fill="#FFFFFF" d="M641.9,286.2v22.7h-32.7v7.7h38.9v24h-68.4v-85.8h68.4v24h-38.9v7.4H641.9z"/>
	<path fill="#FFFFFF" d="M685.7,340.6H655l36.4-86.3h27.4l36.4,86.3h-30.7l-3.3-9.5H689L685.7,340.6z M697.4,307.6h15.3l-7.6-22
		L697.4,307.6z"/>
	<path fill="#FFFFFF" d="M835,283.5c-14.8-4.3-24-6.1-31.3-6.1c-4.3,0-6.8,0.8-6.8,3.4c0,3.4,4.5,3.4,14,5.7
		c15.3,3.7,29.8,9.3,29.8,27.6c0,17.4-13.4,28.3-37.4,28.3c-13.8,0-28.4-3.5-42.8-8l6.4-24.1c15.5,4.9,26,7.3,32.2,7.7
		c6.9,0.4,7.7-2.4,7.7-3.5c0-3-5.3-3.7-13.3-5.6c-20.1-4.7-29.5-10.5-29.5-26.4c0-19.3,13.9-29.5,38.3-29.5
		c10.5,0,25.5,1.9,37.6,5.6L835,283.5z"/>
</g>
</svg>
