<?xml version="1.0" encoding="utf-8"?>
<!-- Generator: Adobe Illustrator 17.1.0, SVG Export Plug-In . SVG Version: 6.00 Build 0)  -->
<!DOCTYPE svg PUBLIC "-//W3C//DTD SVG 1.1//EN" "http://www.w3.org/Graphics/SVG/1.1/DTD/svg11.dtd">
<svg version="1.1" id="Layer_1" xmlns="http://www.w3.org/2000/svg" xmlns:xlink="http://www.w3.org/1999/xlink" x="0px" y="0px"
	 viewBox="0 0 296.823 45.264" enable-background="new 0 0 296.823 45.264" xml:space="preserve">
<g>
	<path fill="#303030" d="M46.495,40.737c-6.822,2.933-13.516,4.527-19.828,4.527c-13.898,0-23.142-9.117-23.142-22.76
		C3.525,8.989,13.088,0,27.497,0c4.335,0,9.818,0.637,14.918,2.04l-1.211,5.674c-5.738-1.211-10.328-1.849-13.325-1.849
		C17.105,5.865,9.9,12.495,9.9,22.504c0,10.137,6.694,16.831,16.767,16.831c4.271,0,9.436-0.829,14.026-2.296V25.628H24.245v-5.61
		h22.25V40.737z"/>
	<path fill="#303030" d="M67.338,19.444c-4.08,0-7.587,0.064-11.667,0.51v24.353h-5.801V15.364
		c5.291-0.956,11.858-1.721,17.468-1.721V19.444z"/>
	<path fill="#303030" d="M94.749,27.158c0,2.04-0.064,2.614-0.318,4.463H70.969c0.892,5.036,4.654,8.415,10.519,8.415
		c3.251,0,6.375-0.637,10.774-1.657l0.893,4.718c-4.271,1.339-7.778,2.168-11.858,2.168c-10.711,0-16.576-6.822-16.576-15.938
		c0-9.563,6.631-15.811,15.556-15.811C88.692,13.515,94.685,18.87,94.749,27.158z M70.778,27.095h18.68
		c-0.128-5.483-3.762-8.926-9.053-8.926C74.986,18.169,71.415,21.739,70.778,27.095z"/>
	<path fill="#303030" d="M125.92,27.158c0,2.04-0.064,2.614-0.318,4.463h-23.461c0.892,5.036,4.654,8.415,10.519,8.415
		c3.251,0,6.375-0.637,10.774-1.657l0.893,4.718c-4.271,1.339-7.778,2.168-11.858,2.168c-10.711,0-16.576-6.822-16.576-15.938
		c0-9.563,6.631-15.811,15.556-15.811C119.864,13.515,125.857,18.87,125.92,27.158z M101.95,27.095h18.68
		c-0.128-5.483-3.762-8.926-9.053-8.926C106.158,18.169,102.587,21.739,101.95,27.095z"/>
	<path fill="#303030" d="M156.645,25.437v18.87h-5.801V27.031c0-5.036-2.997-8.16-7.714-8.16c-2.933,0-6.184,0.255-9.691,0.765
		v24.672h-5.801V15.046c3.825-0.765,11.157-1.467,16.703-1.467C151.864,13.579,156.645,18.106,156.645,25.437z"/>
	<path fill="#45A69C" d="M176.215,44.308h-14.918V13.707h-12.941V0.956h40.802v12.75h-12.942V44.308z"/>
	<path fill="#45A69C" d="M214.591,26.967c0,1.53-0.255,3.251-0.702,5.1h-19.062c0.956,1.912,2.869,2.805,5.228,2.805
		c3.889,0,6.63-0.255,11.794-1.275l1.594,8.925c-2.741,1.148-7.905,2.742-13.388,2.742c-11.029,0-18.552-6.822-18.552-17.022
		c0-10.073,6.63-16.767,16.639-16.767C208.025,11.475,214.591,17.659,214.591,26.967z M194.382,25.692h8.352
		c-0.064-2.423-1.403-3.825-3.953-3.825C196.358,21.867,194.891,23.142,194.382,25.692z"/>
	<path fill="#45A69C" d="M253.157,13.069v31.239h-14.344v-1.912c-2.231,1.849-4.526,2.869-8.225,2.869
		c-4.972,0-14.727-4.399-14.727-17.086c0.446-10.009,6.758-16.703,16.002-16.703C236.072,11.475,238.558,11.539,253.157,13.069z
		 M229.505,28.242c0,3.316,2.55,5.483,5.483,5.483c1.148,0,2.359-0.637,3.825-1.912v-9.18c-2.296-0.191-3.124-0.255-3.889-0.255
		C232.119,22.377,229.505,24.481,229.505,28.242z"/>
	<path fill="#45A69C" d="M268.453,32.514c5.674,1.722,10.455,2.869,12.24,2.869c1.084,0,1.721-0.127,1.721-0.574
		c0-0.892-1.275-0.892-3.952-1.593c-7.268-1.785-11.285-3.762-11.285-10.328c0-7.586,5.356-11.539,14.854-11.539
		c4.08,0,9.818,0.702,14.664,2.104l-1.977,10.136c-5.865-1.785-9.563-2.422-11.603-2.422c-1.148,0-1.977,0.127-1.977,0.892
		c0,1.02,1.403,0.829,4.781,1.657c5.483,1.339,10.902,3.634,10.902,10.583c0,6.758-5.1,10.966-14.408,10.966
		c-5.291,0-10.901-1.339-16.512-2.997L268.453,32.514z"/>
	<path fill="#45A69C" d="M272.978,5.99c0.384-1.801-0.292-3.741-1.882-4.887c-1.766-1.272-4.104-1.166-5.739,0.107
		c-0.965,0.566-2.117,1.698-3.551,3.689c-5.002,6.941-4.515,15.362-4.515,15.362s8.142-2.203,13.144-9.144
		C272.209,8.655,272.89,7.066,272.978,5.99z"/>
	<path fill="#45A69C" d="M271.666,6.507c1.115-0.723,1.76-2.057,1.533-3.453c-0.252-1.55-1.499-2.688-2.982-2.873
		c-0.781-0.203-1.946-0.213-3.694,0.07c-6.093,0.99-10.141,5.534-10.141,5.534s5.278,3.03,11.371,2.04
		C269.913,7.474,271.072,7.01,271.666,6.507z"/>
</g>
</svg>
