<svg xmlns="http://www.w3.org/2000/svg" viewBox="0 252.8 841.9 89.6" enable-background="new 0 252.8 841.9 89.6"><g fill="#fff"><path d="M89.1 333.9c-18.9 6.3-30.6 8.6-39.4 8.6-29 0-48.5-17.9-48.5-44.8s18.4-44.8 46-44.8c15.4 0 27 2.3 37.4 4.8l-4.3 24.3c-14.1-2.1-20.7-2.8-29.7-2.8-10.9 0-18.2 7.3-18.2 18.4s7.3 18.4 18.2 18.4c6.3 0 11.9-.9 16.7-2v-4.7h-22.3v-20.7h44.1v45.3zM135.1 320.4h-5.8v20.2h-29.5v-85.8c14.4-.5 25.5-.9 38.4-.9 24.9 0 38.8 11.1 38.8 32.3 0 11.5-3.9 20.5-11.4 26.3l17.4 28.2h-34.1l-10.9-20.3h-2.9zm.4-23.3c7.8 0 11.4-3.9 11.4-10 0-6.3-3.5-9.2-11.4-9.2h-6.2v19.2h6.2zM254.1 286.2v22.7h-32.7v7.7h38.9v24h-68.4v-85.8h68.4v24h-38.9v7.4h32.7zM337 286.2v22.7h-32.7v7.7h38.9v24h-68.4v-85.8h68.4v24h-38.9v7.4h32.7zM443.3 340.6h-25.8l-30.3-36.7v36.7h-29.5v-85.8h27.1l28.9 36.6v-36.6h29.5v85.8zM543.3 340.6h-29.5v-60.6h-25.6v-25.2h80.8v25.2h-25.6v60.6zM641.9 286.2v22.7h-32.7v7.7h38.9v24h-68.4v-85.8h68.4v24h-38.9v7.4h32.7zM685.7 340.6h-30.7l36.4-86.3h27.4l36.4 86.3h-30.7l-3.3-9.5h-32.2l-3.3 9.5zm11.7-33h15.3l-7.6-22-7.7 22zM835 283.5c-14.8-4.3-24-6.1-31.3-6.1-4.3 0-6.8.8-6.8 3.4 0 3.4 4.5 3.4 14 5.7 15.3 3.7 29.8 9.3 29.8 27.6 0 17.4-13.4 28.3-37.4 28.3-13.8 0-28.4-3.5-42.8-8l6.4-24.1c15.5 4.9 26 7.3 32.2 7.7 6.9.4 7.7-2.4 7.7-3.5 0-3-5.3-3.7-13.3-5.6-20.1-4.7-29.5-10.5-29.5-26.4 0-19.3 13.9-29.5 38.3-29.5 10.5 0 25.5 1.9 37.6 5.6l-4.9 24.9z"/></g></svg>